<svg width="14" height="14" viewBox="0 0 14 14" fill="none" xmlns="http://www.w3.org/2000/svg">
<g clip-path="url(#clip0_297_51)">
<rect x="0.274902" y="0.824966" width="12.9245" height="12.3745" rx="6.18724" fill="#ABB2BF"/>
<path fill-rule="evenodd" clip-rule="evenodd" d="M6.71715 0C3.00274 0 0 3.02488 0 6.76706C0 9.75839 1.92396 12.2905 4.593 13.1867C4.9267 13.254 5.04893 13.0411 5.04893 12.8619C5.04893 12.705 5.03793 12.1673 5.03793 11.607C3.16938 12.0104 2.78027 10.8003 2.78027 10.8003C2.47999 10.0161 2.03505 9.81448 2.03505 9.81448C1.42348 9.39994 2.0796 9.39994 2.0796 9.39994C2.758 9.44476 3.11397 10.0946 3.11397 10.0946C3.71441 11.1252 4.68196 10.834 5.0712 10.6547C5.12675 10.2178 5.30481 9.91527 5.49386 9.74725C4.00356 9.59037 2.43557 9.0078 2.43557 6.40847C2.43557 5.66903 2.70231 5.06405 3.12497 4.59355C3.05829 4.42553 2.82468 3.73077 3.19179 2.8009C3.19179 2.8009 3.75896 2.6216 5.03779 3.49552C5.58531 3.34739 6.14995 3.27204 6.71715 3.2714C7.28431 3.2714 7.86248 3.34991 8.39637 3.49552C9.67534 2.6216 10.2425 2.8009 10.2425 2.8009C10.6096 3.73077 10.3759 4.42553 10.3092 4.59355C10.743 5.06405 10.9987 5.66903 10.9987 6.40847C10.9987 9.0078 9.43074 9.57909 7.9293 9.74725C8.17404 9.96009 8.38523 10.3634 8.38523 11.002C8.38523 11.9095 8.37423 12.6378 8.37423 12.8618C8.37423 13.0411 8.4966 13.254 8.83016 13.1868C11.4992 12.2903 13.4232 9.75839 13.4232 6.76706C13.4342 3.02488 10.4204 0 6.71715 0Z" fill="#24292F"/>
</g>
<defs>
<clipPath id="clip0_297_51">
<rect width="13.4744" height="13.1995" fill="white"/>
</clipPath>
</defs>
</svg>
